<svg xmlns="http://www.w3.org/2000/svg" xmlns:xlink="http://www.w3.org/1999/xlink" width="64" height="20" viewBox="0 0 64 20">
  <defs>
    <clipPath id="clip-path">
      <rect id="Rectangle_1660" data-name="Rectangle 1660" width="46.418" height="11.641" fill="none"/>
    </clipPath>
  </defs>
  <g id="silver" transform="translate(2.502 -2)">
    <rect id="Rectangle_1676" data-name="Rectangle 1676" width="64" height="20" rx="10" transform="translate(-2.502 2)" fill="gray" opacity="0.069"/>
    <g id="Group_5531" data-name="Group 5531" transform="translate(6.289 6.18)">
      <g id="Group_5530" data-name="Group 5530" clip-path="url(#clip-path)">
        <path id="Path_2423" data-name="Path 2423" d="M17.954.019H16.6V6.67c0,1.973.045,3.191-.537,4.038-.02.029-.04.057-.061.084v0a1.782,1.782,0,0,1-.88.642c-.071.02-.217.058-.2.149s.163.068.514-.021a3.329,3.329,0,0,0,.573-.218c.028-.012.057-.026.087-.041a3.257,3.257,0,0,0,1.738-2.059,8.281,8.281,0,0,0,.247-2c.029-.584.006-1.256.006-1.751V3.362c0-1.028.009-1.481.015-1.755,0,0,.012-.488.018-.508A2.124,2.124,0,0,1,18.2.587.681.681,0,0,1,18.4.3c.17-.138.431-.069.431-.182,0-.133-.242-.1-.873-.1M5.513.682A3.08,3.08,0,0,0,3.281.026H.873C.241.025,0-.006,0,.126,0,.24.262.171.431.309A.647.647,0,0,1,.6.537a3.767,3.767,0,0,1,.123.981c.019.344.037.875.037,1.85V5.4c0,.711,0,1.64-.019,2.133,0,.044,0,.1,0,.168h0v0c-.005.115-.014.255-.032.395,0,.014,0,.029,0,.042a1.521,1.521,0,0,1-.091.39.632.632,0,0,1-.163.214c-.17.138-.431.069-.431.182,0,.133.241.1.872.1H2.236V.786c0-.126.036-.2.1-.218A1.761,1.761,0,0,1,2.8.522,1.828,1.828,0,0,1,4,.971,2.139,2.139,0,0,1,4.71,2.7a2.179,2.179,0,0,1-.5,1.44,1.336,1.336,0,0,1-1.058.488c-.1,0-.231.023-.223.107s.147.1.507.079a2.785,2.785,0,0,0,.744-.143A2.646,2.646,0,0,0,6.2,2.055,1.8,1.8,0,0,0,5.513.682M13.575.015c-.541,0-.751-.022-.751.1s.261.044.431.182a.583.583,0,0,1,.129.151A1.247,1.247,0,0,1,13.489.8a5.042,5.042,0,0,1,.062.8h0V6.043C13,5.511,8.611,1.144,7.462.052A.19.19,0,0,0,7.307,0,.162.162,0,0,0,7.2.159l0,8.857H8.208c.632,0,.872.031.872-.1,0-.114-.261-.044-.431-.183a.567.567,0,0,1-.1-.111A.155.155,0,0,1,8.534,8.6l0,0a3.3,3.3,0,0,1-.177-1.168h0V2.985s4.994,4.861,6.144,6a.185.185,0,0,0,.141.025c.083-.028.089-.127.091-.178h0l0-8.818Z" transform="translate(0 0.001)" fill="#8f0a7c"/>
        <path id="Path_2424" data-name="Path 2424" d="M243.155,21.826a3.534,3.534,0,0,0-.75-.369,3.832,3.832,0,0,0-.989-.152c-.815,0-1.37.4-1.37,1.011,0,.533.315.8,1.772,1.576a6.216,6.216,0,0,1,1.131.728,1.711,1.711,0,0,1,.554,1.3c0,1.229-.913,2-2.358,2-.51,0-2.151-.141-2.151-1.7a6.3,6.3,0,0,0,1.183.714,3.2,3.2,0,0,0,1.033.185c.848,0,1.359-.43,1.359-1.115a1.015,1.015,0,0,0-.109-.511,1.581,1.581,0,0,0-.608-.587c-.12-.065-.521-.272-1.2-.641-1.076-.576-1.532-1.141-1.532-1.88,0-1.142.946-1.9,2.37-1.9a4.009,4.009,0,0,1,1.207.174,3.893,3.893,0,0,1,.87.424Z" transform="translate(-219.257 -18.797)" fill="#f58bbd"/>
        <path id="Path_2425" data-name="Path 2425" d="M362.253,29.3h-.544l-2.826-7.359h.957l2.12,5.6a1.031,1.031,0,0,1,.076.348.944.944,0,0,1,.065-.348l2.043-5.6h.891Z" transform="translate(-329.247 -20.127)" fill="#f58bbd"/>
        <path id="Path_2426" data-name="Path 2426" d="M306.5,24.278V23.194c0-1.242-.855-1.242-.855-1.242v7.2h.855V24.278Z" transform="translate(-280.408 -20.139)" fill="#f58bbd"/>
        <path id="Path_2427" data-name="Path 2427" d="M333.046,29.139a1.321,1.321,0,0,0-1.222-.748h-2.255V21.939h-.891v7.2h3.656v0Z" transform="translate(-301.535 -20.127)" fill="#f58bbd"/>
        <path id="Path_2428" data-name="Path 2428" d="M444.355,21.955H439.9v7.2h4.179v-.746h-3.293V25.888h2.41v-.776h-2.41V22.7H443c1.172,0,1.356-.746,1.356-.746" transform="translate(-403.575 -20.142)" fill="#f58bbd"/>
        <path id="Path_2429" data-name="Path 2429" d="M502.049,25.827a2.177,2.177,0,0,0,.711-.468,2.114,2.114,0,0,0,.63-1.488,1.979,1.979,0,0,0-.565-1.4,2.088,2.088,0,0,0-1.695-.532h-1a3.316,3.316,0,0,1-1.014,1.157v6.042H500v-3.1h.79a2.256,2.256,0,0,0,.279,0,7.735,7.735,0,0,0,1.1,1.931c.845,1.051,1.217,1.354,2.141,1.072a7.973,7.973,0,0,1-2.265-3.212M500,25.282v-2.6h1c.641,0,.826.033,1.043.206a1.18,1.18,0,0,1,.391.989,1.262,1.262,0,0,1-1.434,1.4Z" transform="translate(-457.897 -20.125)" fill="#f58bbd"/>
      </g>
    </g>
  </g>
</svg>
