<svg id="anh" xmlns="http://www.w3.org/2000/svg" width="30.036" height="25.12" viewBox="0 0 30.036 25.12">
  <path id="Path_168" data-name="Path 168" d="M278,4.019a4.971,4.971,0,0,0-5.82-3.927L253.466,3.729a4.592,4.592,0,0,1,.463-.022h6.612L272.433,1.4a3.642,3.642,0,0,1,4.261,2.876l.029.153a5.4,5.4,0,0,1,1.634,1.443Z" transform="translate(-248.965 0)" fill="#707070"/>
  <path id="Path_169" data-name="Path 169" d="M262.787,21.79a4.982,4.982,0,0,0-4.578-3.048H238.1a4.97,4.97,0,0,0-4.963,4.963V34.752a4.968,4.968,0,0,0,4.963,4.961h20.11a4.968,4.968,0,0,0,4.963-4.961V23.705a4.937,4.937,0,0,0-.385-1.915m-.943,12.962a3.637,3.637,0,0,1-3.635,3.633H238.1a3.634,3.634,0,0,1-1.731-.438,0,0,0,0,0,0,0,3.635,3.635,0,0,1-1.9-3.192V23.705A3.64,3.64,0,0,1,238.1,20.07h20.11a3.637,3.637,0,0,1,3.635,3.635Z" transform="translate(-233.136 -14.593)" fill="#707070"/>
  <path id="Path_170" data-name="Path 170" d="M271.231,66.929a.585.585,0,0,1-.459-.221l-4.221-5.3a.4.4,0,0,0-.693,0l-3.145,3.951a.587.587,0,0,1-.918,0l-5.993-7.53a.409.409,0,0,0-.693,0l-5.415,6.8a.587.587,0,0,1-.918-.731l5.414-6.8a1.568,1.568,0,0,1,2.529,0l5.534,6.953,2.686-3.375a1.569,1.569,0,0,1,2.529,0l4.221,5.3a.587.587,0,0,1-.459.952" transform="translate(-245.214 -43.957)" fill="#707070"/>
  <path id="Path_171" data-name="Path 171" d="M326.2,34.247a2.9,2.9,0,1,1,2.9-2.9,2.9,2.9,0,0,1-2.9,2.9m0-4.623a1.725,1.725,0,1,0,1.725,1.725,1.727,1.727,0,0,0-1.725-1.725" transform="translate(-303.345 -22.153)" fill="#707070"/>
</svg>
