<svg xmlns="http://www.w3.org/2000/svg" xmlns:xlink="http://www.w3.org/1999/xlink" width="11" height="11" viewBox="0 0 11 11">
  <defs>
    <clipPath id="clip-path">
      <rect id="Rectangle_243" data-name="Rectangle 243" width="11" height="11" transform="translate(4677 -14)" fill="#fff"/>
    </clipPath>
  </defs>
  <g id="hot" transform="translate(-4677 14)" clip-path="url(#clip-path)">
    <path id="Path_331" data-name="Path 331" d="M769.366,1252.086a3.126,3.126,0,0,1,1,.525,6.608,6.608,0,0,1,2.106,3.076,8.613,8.613,0,0,1,.414,2.314c0,.054.007.107.012.2a1.494,1.494,0,0,0,.547-1.2,11.87,11.87,0,0,0-.157-1.314.044.044,0,0,1,.026.017,8.591,8.591,0,0,1,1.222,3.26,3.587,3.587,0,0,1-1.767,3.707c-.058.034-.12.06-.18.089a3.963,3.963,0,0,0,.169-.572.893.893,0,0,0-.4-.924c-.242-.163-.494-.312-.74-.47s-.524-.319-.767-.5a2.032,2.032,0,0,1-.784-2.453c.028-.092.058-.184.089-.285a3.629,3.629,0,0,0-1.317,2.806,3.876,3.876,0,0,0,1.631,2.663l-.032.061a8.886,8.886,0,0,1-.9-.334,3.465,3.465,0,0,1-.624-5.82,3.1,3.1,0,0,0,.782-4.324C769.6,1252.441,769.492,1252.283,769.366,1252.086Z" transform="translate(3911.391 -1266.086)" fill="red"/>
  </g>
</svg>
