<svg xmlns="http://www.w3.org/2000/svg" width="27.307" height="24.525" viewBox="0 0 27.307 24.525">
  <g id="Tuvan-icon-1" transform="translate(-463.193 2578.044)">
    <g id="tư_vấn_icon" data-name="tư vấn icon" transform="translate(475.68 -2577.544)">
      <path id="Path_317" data-name="Path 317" d="M12.177,0H2.137A2.14,2.14,0,0,0,0,2.137v5.74a2.14,2.14,0,0,0,2.137,2.137H3.312v2.61a.371.371,0,0,0,.217.338A.365.365,0,0,0,3.683,13a.372.372,0,0,0,.243-.091l3.323-2.89h4.928A2.145,2.145,0,0,0,14.32,7.873V2.142A2.145,2.145,0,0,0,12.177,0" transform="translate(0 0)" fill="#fff"/>
      <path id="Path_317_-_Outline" data-name="Path 317 - Outline" d="M3.683,13.5a.86.86,0,0,1-.364-.08.871.871,0,0,1-.507-.791v-2.11H2.137A2.64,2.64,0,0,1-.5,7.877V2.137A2.64,2.64,0,0,1,2.137-.5h10.04A2.645,2.645,0,0,1,14.82,2.142v5.73a2.645,2.645,0,0,1-2.643,2.642H7.436L4.254,13.282A.874.874,0,0,1,3.683,13.5ZM2.137.5A1.639,1.639,0,0,0,.5,2.137v5.74A1.639,1.639,0,0,0,2.137,9.515H3.812v2.826l3.25-2.826h5.115A1.644,1.644,0,0,0,13.82,7.873V2.142A1.644,1.644,0,0,0,12.177.5Z" transform="translate(0 0)" fill="#4c4c4c"/>
      <path id="Path_318" data-name="Path 318" d="M12.76,7.722a1.156,1.156,0,1,0,1.156,1.156A1.158,1.158,0,0,0,12.76,7.722m0,1.57a.414.414,0,1,1,.414-.414.415.415,0,0,1-.414.414" transform="translate(-5.596 -3.724)" fill="#4c4c4c"/>
      <path id="Path_319" data-name="Path 319" d="M19.079,7.722a1.156,1.156,0,1,0,1.156,1.156,1.158,1.158,0,0,0-1.156-1.156m0,1.57a.414.414,0,1,1,.414-.414.415.415,0,0,1-.414.414" transform="translate(-8.643 -3.724)" fill="#4c4c4c"/>
      <path id="Path_320" data-name="Path 320" d="M6.442,7.722A1.156,1.156,0,1,0,7.6,8.878,1.158,1.158,0,0,0,6.442,7.722m0,1.57a.414.414,0,1,1,.414-.414.415.415,0,0,1-.414.414" transform="translate(-2.549 -3.724)" fill="#4c4c4c"/>
      <path id="Path_321" data-name="Path 321" d="M19.9,17.894a3.027,3.027,0,0,0-1.311-2.077c-.395-.263-.792-.558-1.175-.843-1.538-1.142-3.28-2.437-4.668-1.049a1.654,1.654,0,0,1-1.756.58c-.251-.211-1.283-1.086-2.352-2.144-1.358-1.345-1.492-1.948-.714-3.22,1.258-2.057.724-2.82-1.046-5.348L6.8,3.681C5.879,2.365,5.133,1.762,4.306,1.66a3.562,3.562,0,0,0-2.6,1.172C-.108,4.421-.508,7.009.664,9.587A23.908,23.908,0,0,0,8.8,19.244c2.446,1.643,4.476,2.685,6.332,2.685a5.108,5.108,0,0,0,3.526-1.5,3.119,3.119,0,0,0,1.247-2.54m-1.979,1.732" transform="matrix(0.996, 0.087, -0.087, 0.996, -10.032, -0.097)" fill="#fff"/>
      <path id="Path_321_-_Outline" data-name="Path 321 - Outline" d="M15.128,22.429c-1.767,0-3.682-.8-6.611-2.77A24.419,24.419,0,0,1,.209,9.794C-1.059,7.007-.611,4.2,1.378,2.457a4.284,4.284,0,0,1,2.695-1.31,2.462,2.462,0,0,1,.292.017c.984.12,1.835.787,2.845,2.23l.079.113A10.542,10.542,0,0,1,9.021,6.518,3.539,3.539,0,0,1,8.351,9.4c-.608.994-.622,1.354.64,2.6.95.94,1.882,1.744,2.244,2.05a.783.783,0,0,0,.169.018,1.465,1.465,0,0,0,.99-.5,2.381,2.381,0,0,1,1.726-.748c1.237,0,2.487.928,3.589,1.746l0,0c.337.251.755.563,1.154.829A3.542,3.542,0,0,1,20.4,17.853,3.586,3.586,0,0,1,18.989,20.8,5.605,5.605,0,0,1,15.128,22.429ZM4.073,2.147A3.448,3.448,0,0,0,2.037,3.209c-1.644,1.437-2,3.8-.918,6.171a23.388,23.388,0,0,0,7.955,9.449c2.713,1.822,4.524,2.6,6.054,2.6a4.652,4.652,0,0,0,3.19-1.366A2.657,2.657,0,0,0,19.4,17.935a2.549,2.549,0,0,0-1.089-1.7c-.422-.281-.852-.6-1.2-.859l0,0c-.978-.726-2.087-1.549-2.993-1.549a1.38,1.38,0,0,0-1.019.455,2.391,2.391,0,0,1-1.7.8,1.692,1.692,0,0,1-.587-.1l-.081-.03-.066-.056c-.292-.245-1.326-1.126-2.382-2.171a4.154,4.154,0,0,1-1.294-1.884A2.623,2.623,0,0,1,7.5,8.88c1.087-1.778.723-2.3-1.029-4.8L6.39,3.967c-.83-1.186-1.472-1.728-2.145-1.81A1.453,1.453,0,0,0,4.073,2.147Z" transform="matrix(0.996, 0.087, -0.087, 0.996, -10.032, -0.097)" fill="#4c4c4c"/>
    </g>
  </g>
</svg>
