<svg xmlns="http://www.w3.org/2000/svg" viewBox="0 0 10.55 10.2"><defs><style>.cls-1{fill:#fff;}.cls-1,.cls-3{stroke:#ed2024;stroke-linecap:round;stroke-linejoin:round;stroke-width:0.2px;fill-rule:evenodd;}.cls-2{fill:#ed2024;}.cls-3{fill:none;}</style></defs><title>Asset 11</title><g id="Layer_2" data-name="Layer 2"><g id="Layer_1-2" data-name="Layer 1"><path class="cls-1" d="M9.3,4.73,9.53,1.5a.37.37,0,0,0-.36-.39l-3.24,0a.38.38,0,0,0-.25.09L.22,6.2a.35.35,0,0,0,0,.51l3,3.27a.35.35,0,0,0,.51,0L9.19,5A.34.34,0,0,0,9.3,4.73ZM8,2.55a.45.45,0,0,1,0-.64.46.46,0,1,1,.62.67A.45.45,0,0,1,8,2.55Z"/><path class="cls-2" d="M2.78,8,3,7.72a.41.41,0,0,0,.29.11.37.37,0,0,0,.26-.12.45.45,0,0,0,.15-.25.23.23,0,0,0,0-.2.24.24,0,0,0-.11-.06.41.41,0,0,0-.16,0l-.28.15a1,1,0,0,1-.44.15.51.51,0,0,1-.52-.41.58.58,0,0,1,.05-.31.86.86,0,0,1,.23-.3A.82.82,0,0,1,3,6.27a.54.54,0,0,1,.42.18l-.27.27a.3.3,0,0,0-.22-.08.33.33,0,0,0-.22.12A.46.46,0,0,0,2.51,7a.14.14,0,0,0,0,.12.13.13,0,0,0,.12,0A.85.85,0,0,0,3,7a2.42,2.42,0,0,1,.4-.18.48.48,0,0,1,.29,0A.51.51,0,0,1,4,7a.56.56,0,0,1,.14.29.5.5,0,0,1,0,.32A1.23,1.23,0,0,1,3.8,8a.81.81,0,0,1-.52.25A.7.7,0,0,1,2.78,8Z"/><path class="cls-2" d="M5.83,6l-.31.28-.41-.2-.56.52L4.73,7l-.3.28-.75-1.9L4,5.14ZM4.8,6l-.67-.34.29.69Z"/><path class="cls-2" d="M6,5.87,4.7,4.49,5,4.23,6.05,5.38l.69-.65L7,5Z"/><path class="cls-2" d="M7.16,4.78,5.87,3.39l1-1,.22.23-.75.7.29.31L7.35,3l.22.24-.7.64.36.38L8,3.56l.22.24Z"/><path class="cls-3" d="M8.78,2.17a1,1,0,0,0,.55.15A1.11,1.11,0,1,0,8.23,1.1"/></g></g></svg>