<svg xmlns="http://www.w3.org/2000/svg" width="28.377" height="19.025" viewBox="0 0 28.377 19.025"><defs><style>.a{fill:#fff;}.b{fill:none;stroke:#4c4c4c;stroke-linecap:round;stroke-miterlimit:10;stroke-width:1.5px;}</style></defs><g transform="translate(2084.75 -619.75)"><path class="a" d="M26.708,17.525H2.168a1.1,1.1,0,0,1-1.168-1V12.286a3,3,0,0,0,0-6V1A1.1,1.1,0,0,1,2.168,0h24.54a1.1,1.1,0,0,1,1.168,1V6.287a3,3,0,1,0,0,6v4.239A1.1,1.1,0,0,1,26.708,17.525Z" transform="translate(-2085 620.5)"/><path class="b" d="M960.5,1024.5a3,3,0,0,0,0-6" transform="translate(-3044.5 -391.714)"/><path class="b" d="M983.5,1024.5a3,3,0,0,1,0-6" transform="translate(-3040.623 -391.714)"/><g transform="translate(-3045.102 -391.476)"><line class="b" x1="8.745" y2="8.745" transform="translate(970.428 1016.32)"/><circle class="b" cx="1.702" cy="1.702" r="1.702" transform="translate(968.74 1016.297)"/><circle class="b" cx="1.702" cy="1.702" r="1.702" transform="translate(976.937 1022.824)"/></g><path class="b" d="M960.5,1018.5v-5a1.1,1.1,0,0,1,1.168-1h24.54a1.094,1.094,0,0,1,1.168,1v5" transform="translate(-3044.5 -392)"/><path class="b" d="M987.377,1024.5v4a1.094,1.094,0,0,1-1.168,1h-24.54a1.1,1.1,0,0,1-1.168-1v-4" transform="translate(-3044.5 -391.475)"/></g></svg>