<svg xmlns="http://www.w3.org/2000/svg" xmlns:xlink="http://www.w3.org/1999/xlink" width="56" height="20" viewBox="0 0 56 20">
  <defs>
    <clipPath id="clip-path">
      <rect id="Rectangle_1665" data-name="Rectangle 1665" width="36.468" height="13.796" fill="none"/>
    </clipPath>
  </defs>
  <g id="style" transform="translate(-2.871 -2)">
    <rect id="Rectangle_1678" data-name="Rectangle 1678" width="56" height="20" rx="10" transform="translate(2.871 2)" fill="gray" opacity="0.069"/>
    <g id="Group_5536" data-name="Group 5536" transform="translate(12.637 5.102)">
      <path id="Path_2438" data-name="Path 2438" d="M85.931,1.843H79.674v.633h2.5V10.6h1.266V2.476h2.5Z" transform="translate(-72.967 -1.688)" fill="#060706"/>
      <g id="Group_5535" data-name="Group 5535">
        <g id="Group_5534" data-name="Group 5534" clip-path="url(#clip-path)">
          <path id="Path_2439" data-name="Path 2439" d="M195.966,34.07c0,.006,0,.013,0,.019l.114.168c.009-.016.017-.033.027-.049a1.7,1.7,0,0,1,.322-.4.781.781,0,0,1,.692-.116s.064-.012.069-.011l-.15-.223a1.52,1.52,0,0,0-.864.213,2.922,2.922,0,0,0-.327.247l.105.156.009,0" transform="translate(-179.362 -30.638)" fill="#060706"/>
          <path id="Path_2440" data-name="Path 2440" d="M194.629,29.831a1.79,1.79,0,0,0-.955.3q-.118.079-.228.166l.094.14a1.764,1.764,0,0,1,1.181-.469l-.092-.138" transform="translate(-177.16 -27.32)" fill="#060706"/>
          <path id="Path_2441" data-name="Path 2441" d="M229.746,35.28a2.212,2.212,0,0,1,.188.281c.047.081.1.2.145.279l.1-.157a3.818,3.818,0,0,0-.354-.527Z" transform="translate(-210.404 -32.196)" fill="#060706"/>
          <path id="Path_2442" data-name="Path 2442" d="M191.022,26.679l.093.138a2.17,2.17,0,0,1,.9-.425,2.314,2.314,0,0,1,.285-.038l-.1-.145a2.942,2.942,0,0,0-.947.327c-.081.045-.157.094-.231.144" transform="translate(-174.94 -24.002)" fill="#060706"/>
          <path id="Path_2443" data-name="Path 2443" d="M227.231,38.649a2.1,2.1,0,0,1,.227.464c.018.048.045.121.061.17l.146-.222a2.845,2.845,0,0,0-.331-.573Z" transform="translate(-208.1 -35.249)" fill="#060706"/>
          <path id="Path_2444" data-name="Path 2444" d="M231.955,31.635l-.1.151a2,2,0,0,1,.3.374c.018.031.053.1.07.13l.116-.176c-.062-.095-.156-.218-.231-.309-.051-.061-.1-.113-.151-.17" transform="translate(-212.336 -28.972)" fill="#060706"/>
          <path id="Path_2445" data-name="Path 2445" d="M210.885,75.291v-.312a2.373,2.373,0,0,1-.743.206.546.546,0,0,1-.5-.2v.286a1.845,1.845,0,0,0,.266.122,1.26,1.26,0,0,0,.975-.1" transform="translate(-191.994 -68.667)" fill="#060706"/>
          <path id="Path_2446" data-name="Path 2446" d="M188.526,22.926l.1.154a2.924,2.924,0,0,1,.591-.308,3.112,3.112,0,0,1,.592-.147l-.117-.176a2.8,2.8,0,0,0-1.088.424l-.082.052" transform="translate(-172.654 -20.559)" fill="#060706"/>
          <path id="Path_2447" data-name="Path 2447" d="M185.41,19.324l.161.238c.055-.037.11-.073.167-.108a2.837,2.837,0,0,1,.994-.377l-.091-.137a3.693,3.693,0,0,0-.619.168c-.2.073-.408.145-.612.217" transform="translate(-169.8 -17.345)" fill="#060706"/>
          <path id="Path_2448" data-name="Path 2448" d="M210.531,71.028c-.025-.008-.1.046-.1.069.005.117.217.279.4.282.02-.014.087-.04.114-.087.013-.023-.037-.1-.078-.123a1.841,1.841,0,0,0-.329-.141" transform="translate(-192.712 -65.048)" fill="#060706"/>
          <path id="Path_2449" data-name="Path 2449" d="M245.821,10.546c.043.032.07.048.113.082.1.076.242.205.33.287l.092-.141a5.345,5.345,0,0,0-.434-.382Z" transform="translate(-225.125 -9.517)" fill="#060706"/>
          <path id="Path_2450" data-name="Path 2450" d="M210.763,64.522c.043-.011.083-.024.123-.037v-.162a.673.673,0,0,1-.384.058l-.023-.042a1.471,1.471,0,0,1,.173-.106c.077-.034.156-.065.234-.1v-.132c-.1.039-.2.079-.3.11a.736.736,0,0,1-.843-.242,1.4,1.4,0,0,1-.1-.133v.37a.77.77,0,0,0,.184.1c.2.074.374.186.569.259a.674.674,0,0,0,.364.05" transform="translate(-191.995 -58.375)" fill="#060706"/>
          <path id="Path_2451" data-name="Path 2451" d="M213.8,48.16a.826.826,0,0,1-.3-.556.9.9,0,0,0-.081-.257.13.13,0,0,0-.105-.06c-.038.013-.061.063-.079.085a1.41,1.41,0,0,0,.275.683,1.87,1.87,0,0,0,.267.248c.016.014.059,0,.089,0a.248.248,0,0,0-.007-.083.2.2,0,0,0-.058-.062" transform="translate(-195.286 -43.306)" fill="#060706"/>
          <path id="Path_2452" data-name="Path 2452" d="M236.907,24.974l.089-.137-.027-.051a2.35,2.35,0,0,0-.333-.427l-.018-.016-.1.158a4.553,4.553,0,0,1,.39.475" transform="translate(-216.605 -22.293)" fill="#060706"/>
          <path id="Path_2453" data-name="Path 2453" d="M200.76,38.114c.075-.035.146-.078.218-.117,0-.011,0-.022,0-.033a.592.592,0,0,0-.175,0,.66.66,0,0,0-.42.32c-.051.1-.1.2-.14.3l.124.183a1.308,1.308,0,0,1,.059-.263.624.624,0,0,1,.336-.391" transform="translate(-183.383 -34.761)" fill="#060706"/>
          <path id="Path_2454" data-name="Path 2454" d="M224.579,42.749a1.879,1.879,0,0,1,.222.678l.007.048.163-.249a2.619,2.619,0,0,0-.288-.636Z" transform="translate(-205.672 -39.004)" fill="#060706"/>
          <path id="Path_2455" data-name="Path 2455" d="M203.958,39.44a.514.514,0,0,1,.309-.246,1.133,1.133,0,0,1,.24-.032L204.4,39a.834.834,0,0,0-.675.343,1.045,1.045,0,0,0-.187.608l.239.354a1.158,1.158,0,0,1,.183-.864" transform="translate(-186.4 -35.715)" fill="#060706"/>
          <path id="Path_2456" data-name="Path 2456" d="M208.737,45.046a.577.577,0,0,0,.613.054c.071-.033.144-.06.215-.091v-.146a.531.531,0,0,1-.532.1.966.966,0,0,1-.691-.864c-.005-.072,0-.145,0-.218l.04-.014a.989.989,0,0,1,.081.163,1.274,1.274,0,0,0,.346.6.456.456,0,0,0,.752-.043v-.229l.1-.155a1.236,1.236,0,0,0-.2-.774l-.1.156a1.21,1.21,0,0,1,.158.734.583.583,0,0,1-.133.306c-.107.116-.3.081-.445-.068a1.7,1.7,0,0,1-.467-.947.25.25,0,0,1,.145-.274.238.238,0,0,1,.31.159c.075.175.124.359.195.535a2.323,2.323,0,0,0,.147.263.419.419,0,0,0,.1-.356,2.57,2.57,0,0,0-.133-.29l-.336-.5c-.014,0-.1.024-.11.022a.41.41,0,0,0-.478.233,1.309,1.309,0,0,0-.013,1.094l.008.012v.008a1.216,1.216,0,0,0,.413.526" transform="translate(-190.675 -39.517)" fill="#060706"/>
          <path id="Path_2457" data-name="Path 2457" d="M210.885,81.225v-.26a1.831,1.831,0,0,1-.371.128,1.273,1.273,0,0,1-.87-.113v.184a2.02,2.02,0,0,0,.441.126,1.575,1.575,0,0,0,.8-.065" transform="translate(-191.994 -74.149)" fill="#060706"/>
          <path id="Path_2458" data-name="Path 2458" d="M248.524,5.7l-.149.225c.135.112.3.266.425.389l.139-.211a2.925,2.925,0,0,0-.415-.4" transform="translate(-227.464 -5.221)" fill="#060706"/>
          <path id="Path_2459" data-name="Path 2459" d="M180.039,9.85l0-.047a.7.7,0,0,0-.18-.015,3.4,3.4,0,0,0-.921.347l.062.091a3.969,3.969,0,0,1,.874-.313,1.251,1.251,0,0,0,.169-.063" transform="translate(-163.87 -8.961)" fill="#060706"/>
          <path id="Path_2460" data-name="Path 2460" d="M243.531,14.511l.109-.167a5.458,5.458,0,0,0-.453-.372l-.124.19a1.487,1.487,0,0,1,.468.35" transform="translate(-222.6 -12.796)" fill="#060706"/>
          <path id="Path_2461" data-name="Path 2461" d="M173.819,3.222a.89.89,0,0,1,.128.163l.013.02a5.163,5.163,0,0,1,1.122-.326,1.455,1.455,0,0,0-.328-.176,5.646,5.646,0,0,0-.549.138,1.353,1.353,0,0,0-.387.18" transform="translate(-159.185 -2.66)" fill="#060706"/>
          <path id="Path_2462" data-name="Path 2462" d="M252.012,1.774c.106.154.277.3.379.451l.356-.553-.672.006Z" transform="translate(-230.795 -1.531)" fill="#060706"/>
          <path id="Path_2463" data-name="Path 2463" d="M165.711,2.14A1.487,1.487,0,0,1,165.968,2a2.448,2.448,0,0,1,.358-.125H165.14v.082a.915.915,0,0,1,.571.187" transform="translate(-151.237 -1.713)" fill="#060706"/>
          <path id="Path_2464" data-name="Path 2464" d="M210.362,94.724c-.241-.035-.479-.088-.717-.145v.169a4.467,4.467,0,0,0,1.239.109h0v-.115a2.473,2.473,0,0,1-.524-.019" transform="translate(-191.995 -86.616)" fill="#060706"/>
          <path id="Path_2465" data-name="Path 2465" d="M223.895,99.792h.042v0l-.042,0" transform="translate(-205.045 -91.387)" fill="#060706"/>
          <path id="Path_2466" data-name="Path 2466" d="M241.442,17.758l-.119-.084-.073.114.094.059a1.347,1.347,0,0,1,.336.347l.093-.142a2.728,2.728,0,0,0-.331-.294" transform="translate(-220.939 -16.186)" fill="#060706"/>
          <path id="Path_2467" data-name="Path 2467" d="M176.871,6.8l.1.152a3.753,3.753,0,0,1,1.088-.39c.029,0,.093-.008.122-.012-.031-.035-.055-.1-.086-.126-.13.023-.3.078-.427.108a7.981,7.981,0,0,0-.8.268" transform="translate(-161.98 -5.885)" fill="#060706"/>
          <path id="Path_2468" data-name="Path 2468" d="M210.258,85.648a4.292,4.292,0,0,0,.628-.085v-.177a1.749,1.749,0,0,1-1.241-.069v.261a1.539,1.539,0,0,0,.614.07" transform="translate(-191.994 -78.133)" fill="#060706"/>
          <path id="Path_2469" data-name="Path 2469" d="M182.9,15.951l.051-.019a6.959,6.959,0,0,1,1.166-.38l-.089-.135a4.542,4.542,0,0,0-1.249.354Z" transform="translate(-167.395 -14.119)" fill="#060706"/>
          <path id="Path_2470" data-name="Path 2470" d="M234.255,28.169a2.459,2.459,0,0,1,.383.486l.1-.159c-.12-.149-.262-.327-.389-.47Z" transform="translate(-214.533 -25.667)" fill="#060706"/>
          <path id="Path_2471" data-name="Path 2471" d="M210.885,90.73v-.139l-.27.024a.543.543,0,0,1-.139-.023l0-.051c.115-.015.229-.035.344-.045l.063-.008v-.13l-.09.017a4.563,4.563,0,0,1-.816.072,3.156,3.156,0,0,1-.335-.028v.133c.253.061.506.121.762.164a1.882,1.882,0,0,0,.479.015" transform="translate(-191.994 -82.75)" fill="#060706"/>
          <path id="Path_2472" data-name="Path 2472" d="M180.592,12.515l.087.128a5.231,5.231,0,0,1,1.251-.344l-.092-.14c-.2.038-.431.091-.634.137a2.762,2.762,0,0,0-.612.219" transform="translate(-165.388 -11.135)" fill="#060706"/>
          <path id="Path_2473" data-name="Path 2473" d="M239.006,20.777l-.1.156a1.479,1.479,0,0,1,.361.4c0,.006.026.059.029.066l.139-.208a1.519,1.519,0,0,0-.428-.417" transform="translate(-218.792 -19.028)" fill="#060706"/>
          <path id="Path_2474" data-name="Path 2474" d="M209.644,102v.323H210.9c-.2-.016-.878-.233-1.073-.283-.061-.015-.124-.027-.186-.04" transform="translate(-191.994 -93.414)" fill="#060706"/>
          <path id="Path_2475" data-name="Path 2475" d="M210.508,98.623c-.241-.035-.48-.088-.717-.145v.169a4.518,4.518,0,0,0,1.229.227s.012-.118.012-.118v-.115a2.473,2.473,0,0,1-.524-.019" transform="translate(-192.129 -90.187)" fill="#060706"/>
          <path id="Path_2476" data-name="Path 2476" d="M274.078,9.811V1.673h-2.206a.372.372,0,0,0,0,.083c.808,0,.914.4.925.49v8.195h1.285l4.062.005v-.63Z" transform="translate(-248.98 -1.532)" fill="#060706"/>
          <path id="Path_2477" data-name="Path 2477" d="M363.861,2.321V1.686h-5.392l-.012-.014.012.014h-.954v.072c.825,0,.93.4.942.5v8.193h5.4V9.8h-4.153V6.266h3.132V5.605h-3.132V2.321Z" transform="translate(-327.416 -1.531)" fill="#060706"/>
          <path id="Path_2478" data-name="Path 2478" d="M309.672,122.805l0-.006c-.087-.268-.635-.445-1.63-.526q.038-.072.081-.149a2.855,2.855,0,0,0,.175-.391c.125-.038.265-.077.422-.116.762-.193,1.231-.4,1.255-.559a.13.13,0,0,0-.033-.11c-.056-.063-.21-.148-.895-.156h0c-.207.008-.4.022-.579.042l-.039-.006,0,.011a4.313,4.313,0,0,0-1.861.556l-.014.007c-.16.085-.052.183.048.167a.172.172,0,0,0,.144-.125c.008-.033.1-.077.1-.077a.552.552,0,0,0,.093-.044,5.1,5.1,0,0,1,1.471-.373,5.662,5.662,0,0,1-.192.7c-.611.189-.921.367-.952.468a.126.126,0,0,0,.012.114c.045.062.156.1.6.139a1.713,1.713,0,0,0-.249.784l.109-.024a1.8,1.8,0,0,1,.259-.751c.927.072,1.5.236,1.575.451.014.093-.153.271-.461.357a5.6,5.6,0,0,1-2.25.191l-.016.107a4.989,4.989,0,0,0,.672.044,5.988,5.988,0,0,0,1.624-.238c.337-.094.574-.306.54-.483m-1.154-1.869c.164-.017.34-.029.527-.037.642.007.78.085.81.118a.025.025,0,0,1,.008.023s-.09.2-1.172.471q-.188.047-.35.095a5.847,5.847,0,0,0,.177-.671m-.6,1.327c-.428-.032-.541-.07-.56-.1,0,0,0,0,0-.021a1.93,1.93,0,0,1,.8-.372,2.53,2.53,0,0,1-.138.3c-.034.062-.069.126-.1.191" transform="translate(-280.666 -110.623)" fill="#060706"/>
          <path id="Path_2479" data-name="Path 2479" d="M342.738,136.416a1.638,1.638,0,0,0-.663.254,1.458,1.458,0,0,0,.026-.486.068.068,0,0,0-.054-.035c-.054,0-.1.05-.188.167a1.146,1.146,0,0,1-.313.313c-.039.015-.06.014-.064.009-.028-.029,0-.185.063-.328l-.1-.042c-.034.08-.137.347-.041.446a.158.158,0,0,0,.183.015h0a1.185,1.185,0,0,0,.354-.345c.02-.026.043-.055.063-.079a3.984,3.984,0,0,1-.054.442,5.566,5.566,0,0,0-.771.607,1.1,1.1,0,0,0-.356.989.189.189,0,0,0,.165.14h.02c.3,0,.606-.417.785-.78a3.907,3.907,0,0,0,.254-.885v-.008a2.55,2.55,0,0,1,.719-.319c.156-.025.219-.108-.033-.075m-1.037,1.238c-.215.436-.5.747-.7.735-.012,0-.047,0-.071-.069a1.019,1.019,0,0,1,.329-.889,5.594,5.594,0,0,1,.67-.54,3.328,3.328,0,0,1-.227.764" transform="translate(-312.11 -124.687)" fill="#060706"/>
          <path id="Path_2480" data-name="Path 2480" d="M376.635,120.7h-.371l0,1.828a2.06,2.06,0,0,1-.146,1.11l-.016.023h0a.489.489,0,0,1-.241.177c-.02.006-.06.016-.054.041s.045.019.141-.006a.9.9,0,0,0,.158-.06l.024-.011a.9.9,0,0,0,.477-.566,2.272,2.272,0,0,0,.067-.55c.008-.16,0-.345,0-.481v-.586c0-.282,0-.407,0-.482,0,0,0-.134,0-.14a.589.589,0,0,1,.022-.141.181.181,0,0,1,.053-.078c.047-.038.118-.019.118-.05s-.066-.028-.24-.028m-3.419.186a.844.844,0,0,0-.614-.18h-.662c-.174,0-.24-.008-.24.028s.071.012.119.05a.178.178,0,0,1,.047.063,1.02,1.02,0,0,1,.034.27c.005.095.011.241.011.509v.558c0,.2,0,.451,0,.586,0,.012,0,.028,0,.046h0c0,.032,0,.07-.009.109v.012a.428.428,0,0,1-.025.107.177.177,0,0,1-.045.059c-.047.038-.119.019-.118.05s.066.028.24.028h.37l0-2.265c0-.035.01-.054.026-.06a.49.49,0,0,1,.129-.013.5.5,0,0,1,.33.123.587.587,0,0,1,.195.475.6.6,0,0,1-.138.4.366.366,0,0,1-.291.134c-.027,0-.063.006-.061.03s.041.027.14.021a.761.761,0,0,0,.2-.04.727.727,0,0,0,.556-.72.493.493,0,0,0-.19-.377m2.216-.186c-.149,0-.207-.006-.207.028s.072.012.118.05a.161.161,0,0,1,.036.041.345.345,0,0,1,.029.1,1.38,1.38,0,0,1,.017.219h0l0,1.221c-.153-.146-1.359-1.345-1.675-1.645a.052.052,0,0,0-.042-.014c-.022.005-.028.028-.03.043l0,2.434h.276c.174,0,.24.008.24-.028s-.072-.012-.118-.05a.146.146,0,0,1-.028-.03l0-.005h0a.907.907,0,0,1-.049-.321h0v-1.222s1.374,1.335,1.69,1.648a.051.051,0,0,0,.039.007c.023-.008.024-.035.025-.049l0-2.424Z" transform="translate(-340.408 -110.534)" fill="#060706"/>
          <path id="Path_2481" data-name="Path 2481" d="M5.77,6.667A2.493,2.493,0,0,1,3.034,9.079,2.614,2.614,0,0,1,.1,6.583H.49A2.311,2.311,0,0,0,2.9,8.578,1.633,1.633,0,0,0,4.661,7.039c0-.92-.688-1.371-2.121-2.111C1.632,4.461,0,3.776,0,2.283A2.4,2.4,0,0,1,2.544,0a2.359,2.359,0,0,1,2.6,2.138h-.43A2.06,2.06,0,0,0,2.556.491a1.513,1.513,0,0,0-1.529,1.35c0,.884,1.063,1.445,2.162,2.007,2.078,1.039,2.58,1.78,2.58,2.819" transform="translate(0 -0.001)" fill="#060706"/>
        </g>
      </g>
    </g>
  </g>
</svg>
