<svg xmlns="http://www.w3.org/2000/svg" width="23.5" height="23.5" viewBox="0 0 23.5 23.5"><defs><style>.a{fill:#fff;stroke:#4c4c4c;stroke-linecap:round;stroke-linejoin:round;stroke-width:1.5px;}</style></defs><g transform="translate(1909.75 -735.25)"><path class="a" d="M60.5,882.5h9.9a1.033,1.033,0,0,0,1.1-.947v-2.018a1.024,1.024,0,0,0-.866-.924c-2.538-.625-3.035-3.228-3.534-8.427-.272-2.833-2.2-5.684-6.6-5.684s-6.328,2.852-6.6,5.684c-.5,5.2-1,7.8-3.534,8.427a1.024,1.024,0,0,0-.866.924v2.018a1.033,1.033,0,0,0,1.1.947Z" transform="translate(-1958.5 -128.5)"/><path class="a" d="M59.5,887.5h0a2,2,0,0,1-2-2v-2h4v2A2,2,0,0,1,59.5,887.5Z" transform="translate(-1957.5 -129.5)"/></g></svg>