<svg xmlns="http://www.w3.org/2000/svg" xmlns:xlink="http://www.w3.org/1999/xlink" width="11" height="11" viewBox="0 0 11 11">
  <defs>
    <clipPath id="clip-path">
      <rect id="Rectangle_1672" data-name="Rectangle 1672" width="11" height="11" transform="translate(4677 -30)" fill="#fff"/>
    </clipPath>
    <clipPath id="clip-path-2">
      <rect id="Rectangle_1672-2" data-name="Rectangle 1672" width="8.669" height="11" transform="translate(0 0)" fill="none"/>
    </clipPath>
  </defs>
  <g id="brand_icon" data-name="brand icon" transform="translate(-4677 30)" clip-path="url(#clip-path)">
    <g id="Group_5537" data-name="Group 5537" transform="translate(4678.166 -30)">
      <g id="Group_5537-2" data-name="Group 5537" transform="translate(0 0)" clip-path="url(#clip-path-2)">
        <path id="Path_2492" data-name="Path 2492" d="M8.665,3.612A2.5,2.5,0,0,0,8.659,5.3c.052.194-.111.328-.227.451a1.664,1.664,0,0,0-.493,1,.684.684,0,0,1-.524.668,1.6,1.6,0,0,0-.891.732.586.586,0,0,1-.621.3,1.817,1.817,0,0,0-1.247.3.551.551,0,0,1-.65,0,1.882,1.882,0,0,0-1.292-.3.519.519,0,0,1-.549-.268,1.824,1.824,0,0,0-1-.8.59.59,0,0,1-.432-.541,1.669,1.669,0,0,0-.51-1.083.688.688,0,0,1-.165-.8,1.328,1.328,0,0,0,.037-.937A.856.856,0,0,1,.329,2.964a1.36,1.36,0,0,0,.393-.9A.673.673,0,0,1,1.2,1.451,1.718,1.718,0,0,0,2.131.7.62.62,0,0,1,2.79.378,1.773,1.773,0,0,0,4,.107.566.566,0,0,1,4.655.1,1.783,1.783,0,0,0,5.863.379.617.617,0,0,1,6.524.7a1.807,1.807,0,0,0,.972.771.526.526,0,0,1,.409.459A2.055,2.055,0,0,0,8.517,3.2a.487.487,0,0,1,.148.411" transform="translate(-0.001 0)" fill="red"/>
        <path id="Path_2493" data-name="Path 2493" d="M57.463,92.12c-.137,0-.2-.094-.275-.188-.415-.547-.826-1.1-1.249-1.638-.117-.15-.13-.211.064-.315a1.274,1.274,0,0,1,.765-.12.976.976,0,0,0,.961-.459c.5-.667.419-.541.855.017.243.311.48.626.716.942.2.266.105.429-.191.513a.33.33,0,0,1-.087.014,1.166,1.166,0,0,0-1.237.925c-.041.145-.113.312-.321.31" transform="translate(-50.948 -81.135)" fill="red"/>
        <path id="Path_2494" data-name="Path 2494" d="M5.77,90.355c-.038.053-.079.113-.123.171-.405.533-.806,1.069-1.217,1.6-.25.321-.4.3-.6-.072a.911.911,0,0,1-.1-.194.987.987,0,0,0-.983-.746c-.668-.085-.7-.2-.285-.747.255-.336.52-.665.762-1.01.148-.21.273-.239.432-.026a2.28,2.28,0,0,1,.19.239.958.958,0,0,0,1.061.5,1.022,1.022,0,0,1,.713.137c.059.039.137.051.148.149" transform="translate(-2 -81.347)" fill="red"/>
        <path id="Path_2495" data-name="Path 2495" d="M19.208,17.413a3.2,3.2,0,1,1-3.2-3.2,3.209,3.209,0,0,1,3.2,3.2" transform="translate(-11.678 -12.962)" fill="#fcfcfc"/>
        <path id="Path_2496" data-name="Path 2496" d="M21.737,20.139a2.934,2.934,0,1,1-2.924-2.924,2.938,2.938,0,0,1,2.924,2.924" transform="translate(-14.476 -15.703)" fill="red"/>
        <path id="Path_2497" data-name="Path 2497" d="M32.315,42.672c-.336,0-.673-.007-1.009,0a.349.349,0,0,1-.408-.349q-.087-.628-.208-1.252c-.031-.16-.027-.3.115-.388a.282.282,0,0,1,.361.064c.362.348.546.2.751-.191.31-.585.468-.579.8.024.2.363.376.51.722.176a.285.285,0,0,1,.4-.056.327.327,0,0,1,.1.356c-.08.43-.15.863-.216,1.3a.335.335,0,0,1-.388.321c-.336-.007-.673,0-1.009,0" transform="translate(-27.98 -36.6)" fill="#fefefe"/>
        <path id="Path_2498" data-name="Path 2498" d="M25.849,40.456c-.02.164-.106.272-.278.267a.238.238,0,0,1-.247-.25.244.244,0,0,1,.271-.269.258.258,0,0,1,.254.251" transform="translate(-23.1 -36.673)" fill="#e6e6e6"/>
        <path id="Path_2499" data-name="Path 2499" d="M67.509,40.15a.257.257,0,0,1,.283.223.247.247,0,0,1-.238.3.238.238,0,0,1-.275-.218.258.258,0,0,1,.231-.3" transform="translate(-61.365 -36.623)" fill="#e6e6e6"/>
        <path id="Path_2500" data-name="Path 2500" d="M46.827,32.57a.255.255,0,0,1-.3.228.234.234,0,0,1-.218-.272.249.249,0,0,1,.3-.24.259.259,0,0,1,.223.284" transform="translate(-42.236 -29.447)" fill="#e8e8e8"/>
      </g>
    </g>
  </g>
</svg>
