<?xml version="1.0" encoding="utf-8"?>
<!-- Generator: Adobe Illustrator 27.4.1, SVG Export Plug-In . SVG Version: 6.00 Build 0)  -->
<svg version="1.1" id="Layer_1" xmlns="http://www.w3.org/2000/svg" xmlns:xlink="http://www.w3.org/1999/xlink" x="0px" y="0px"
	 viewBox="0 0 115.8 20" style="enable-background:new 0 0 115.8 20;" xml:space="preserve">
<style type="text/css">
	.st0{opacity:6.900000e-02;fill:#808080;enable-background:new    ;}
	.st1{fill:#25326B;}
	.st2{fill:#EB1C24;}
</style>
<g id="silver" transform="translate(2.502 -2)">
	<path id="Rectangle_1676" class="st0" d="M7.5,2h95.8c5.5,0,10,4.5,10,10l0,0c0,5.5-4.5,10-10,10H7.5c-5.5,0-10-4.5-10-10l0,0
		C-2.5,6.5,2,2,7.5,2z"/>
</g>
<g id="Layer_2_00000018945522991958662880000018207302506428917399_">
	<g id="Layer_1-2_00000004517021549561027330000006066525573015498143_">
		<g>
			<path class="st1" d="M12.1,4.2c-0.5,0-1,0.1-1.5,0.1c-0.2,0-1-0.1-1.5-0.1c-0.2,0-0.2,0.1-0.2,0.1S8.9,4.4,9,4.4s0.1,0,0.2,0.1
				C9.4,4.5,9.6,4.7,9.6,5c0.1,0.4,0.1,1.1,0.1,2.4v2c0,1.1,0,2.5-0.1,2.9c-0.1,0.4-0.1,0.5-0.3,0.6c0,0-0.2,0.1-0.2,0.1
				C9,12.9,8.9,13,8.9,13s0.1,0.1,0.2,0.1c0.3,0,1.3,0,1.4,0c0.1,0,0.3,0,0.7,0V9.4V9.3V5.2c0-0.2,0.1-0.3,0.1-0.3s0.4,0,0.6,0
				c0.4,0,0.8,0.2,1.1,0.5c0.4,0.4,0.5,1,0.5,1.7c0,1-0.6,1.7-1.4,1.7c-0.2,0-0.2,0.1-0.2,0.1S12,9.1,12,9.1c0-0.1,0.2-0.1,0.2-0.1
				c1.4,0,2.8-0.9,2.8-2.6c0-0.8-0.3-1.3-0.5-1.5C14.1,4.5,13.4,4.2,12.1,4.2z"/>
			<path class="st1" d="M21.7,4.5h0.2c0,0,0.4,0,0.4,0.5v5.2l-6.1-6c0,0-0.2-0.1-0.2,0.2c0,0.2,0,8.8,0,8.8h1.9c0,0,0.2-0.1,0-0.3
				h-0.2c0,0-0.4,0-0.4-0.6V7.1l6.1,6c0,0,0.2,0.1,0.3-0.1V4.2h-1.9C21.7,4.2,21.5,4.3,21.7,4.5z"/>
			<path class="st1" d="M27.5,4.2h-2.1v8.6c0,0,0.1,2.2-1.4,2.8c0,0-0.3,0.1-0.3,0.2c0.1,0.1,0.3,0.1,0.7-0.1c0.4-0.1,2.6-1.1,2.5-4
				V5.2c0,0-0.1-0.8,0.5-0.8C27.8,4.5,27.7,4.2,27.5,4.2z"/>
			<path class="st2" d="M34.3,6.5c-0.7-0.1-1.3,0.3-1.6,0.7c-0.3-0.3-0.8-0.7-1.6-0.7c-0.5,0-1.1,0.3-1.4,0.7
				c-0.3,0.3-0.5,0.8-0.4,1.6c0.2,1.3,1.4,2.7,3.2,3.4c0.1,0,0.1,0.1,0.2,0.1l0,0c0.1,0,0.1,0,0.2-0.1c1.8-0.7,3.1-2,3.3-3.3
				c0.1-0.8-0.2-1.3-0.4-1.6C35.4,6.9,34.9,6.6,34.3,6.5z"/>
			<path class="st1" d="M43.9,5.6c-0.7,0-1.2,0.4-1.2,1v1.5h-1.9V6.6c0-0.5-0.5-1-1.1-1s-1.2,0.4-1.2,1v5.6c0,0.5,0.5,1,1.2,1
				c0.7,0,1.1-0.4,1.1-1v-1.8h1.9v1.8c0,0.5,0.5,1,1.2,1s1.2-0.4,1.2-1V6.6C45,6.1,44.5,5.6,43.9,5.6z"/>
			<path class="st1" d="M50.8,10.8h-2.7v-0.3h2.3c0.6,0,1.1-0.5,1.1-1.1c0-0.5-0.4-1.1-1.1-1.1h-2.2V7.9h2.7c0.7,0,1.1-0.6,1.1-1.1
				c0-0.5-0.4-1.1-1.1-1.1h-3.7c-0.9,0-1.4,0.5-1.4,1.3v4.7c0,0.8,0.5,1.3,1.4,1.3h3.7c0.7,0,1.1-0.6,1.1-1.1
				C52,11.3,51.5,10.8,50.8,10.8z"/>
			<path class="st1" d="M57.2,10.8h-2.1V6.7c0-0.5-0.5-1-1.2-1s-1.2,0.4-1.2,1v5.1c0,0.8,0.5,1.3,1.4,1.3h3.1c0.3,0,0.6-0.1,0.8-0.4
				c0.2-0.2,0.3-0.5,0.3-0.8C58.2,11.2,57.8,10.8,57.2,10.8z"/>
			<path class="st1" d="M63.4,10.8h-2.1V6.7c0-0.5-0.5-1-1.2-1c-0.7,0-1.2,0.4-1.2,1v5.1c0,0.8,0.5,1.3,1.4,1.3h3.1
				c0.6,0,1.1-0.5,1.1-1.1S64.1,10.8,63.4,10.8z"/>
			<path class="st1" d="M68.6,5.6c-2.2,0-3.9,1.6-3.9,3.8s1.7,3.8,3.9,3.8s3.9-1.6,3.9-3.8S70.8,5.6,68.6,5.6z M68.6,11
				c-0.9,0-1.6-0.7-1.6-1.6s0.7-1.6,1.6-1.6s1.6,0.7,1.6,1.6S69.4,11,68.6,11z"/>
			<path class="st1" d="M79.5,9.2c0.5-0.4,1.8-1.5,1.8-1.5c0.3-0.3,0.4-0.5,0.4-0.9c0-0.3-0.1-0.5-0.3-0.7c-0.4-0.4-1-0.7-1.6-0.2
				c0,0-1.2,1-2,1.6V6.6c0-0.5-0.5-1-1.1-1c-0.7,0-1.1,0.4-1.1,1v5.6c0,0.5,0.5,1,1.1,1c0.7,0,1.1-0.4,1.1-1v-1.3
				c0.8,0.7,2.2,2,2.2,2c0.3,0.3,0.7,0.4,1,0.2c0.4-0.1,0.8-0.5,0.9-1c0-0.1,0-0.2,0-0.2c0-0.3-0.1-0.5-0.3-0.8
				C81.7,11.1,80,9.6,79.5,9.2z"/>
			<path class="st1" d="M83.9,5.6c-0.7,0-1.2,0.4-1.2,1v5.6c0,0.5,0.5,1,1.2,1s1.2-0.4,1.2-1V6.6C85.2,6.1,84.7,5.6,83.9,5.6z"/>
			<path class="st1" d="M91.3,5.7h-4.5c-0.6,0-1,0.5-1,1.1s0.4,1.1,1,1.1h1v4.1c0,0.5,0.5,0.9,1.2,0.9c0.7,0,1.2-0.4,1.2-0.9V8h1
				c0.6,0,1-0.5,1-1.1S91.9,5.7,91.3,5.7z"/>
			<path class="st1" d="M98.5,5.7H94c-0.6,0-1,0.5-1,1.1S93.5,8,94,8h1v4.1c0,0.5,0.5,0.9,1.2,0.9s1.2-0.4,1.2-0.9V8h1
				c0.6,0,1-0.5,1-1.1C99.5,6.2,99.1,5.7,98.5,5.7z"/>
			<path class="st1" d="M106.4,5.7c-0.4-0.1-0.8,0.1-1,0.4c0,0-1.1,1.4-1.5,2c-0.4-0.6-1.5-2-1.5-2c-0.4-0.6-1.2-0.5-1.7-0.2
				c-0.3,0.2-0.4,0.5-0.4,0.9c0,0.2,0.1,0.4,0.2,0.7c0,0,1.8,2.3,2.2,2.9v1.9c0,0.5,0.5,1,1.2,1s1.2-0.4,1.2-1v-1.9
				c0.2-0.2,2.2-2.9,2.2-2.9c0.2-0.2,0.2-0.4,0.2-0.7c0-0.1,0-0.3-0.1-0.4C107.3,6,106.9,5.7,106.4,5.7z"/>
		</g>
	</g>
</g>
</svg>
