<svg xmlns="http://www.w3.org/2000/svg" xmlns:xlink="http://www.w3.org/1999/xlink" width="64" height="20" viewBox="0 0 64 20">
  <defs>
    <clipPath id="clip-path">
      <rect id="Rectangle_1663" data-name="Rectangle 1663" width="48.054" height="11.79" fill="none"/>
    </clipPath>
  </defs>
  <g id="disney_" data-name="disney " transform="translate(2.626 -2)">
    <rect id="Rectangle_1677" data-name="Rectangle 1677" width="64" height="20" rx="10" transform="translate(-2.626 2)" fill="gray" opacity="0.069"/>
    <g id="Group_5533" data-name="Group 5533" transform="translate(5.346 6.105)">
      <g id="Group_5532" data-name="Group 5532" clip-path="url(#clip-path)">
        <path id="Path_2430" data-name="Path 2430" d="M120.818,4.318h-1.107V9.773c0,1.617.037,2.617-.44,3.312l-.049.068a1.474,1.474,0,0,1-.723.529c-.058,0-.178.046-.163.12s.135.055.421,0a2.707,2.707,0,0,0,.47-.178l.071-.034a2.678,2.678,0,0,0,1.427-1.7,6.921,6.921,0,0,0,.2-1.642c.025-.477,0-1.03,0-1.436V5.619a3.89,3.89,0,0,1,.015-.415,1.618,1.618,0,0,1,.065-.418.515.515,0,0,1,.157-.234c.141-.114.354-.058.354-.151s-.2-.083-.713-.083m-10.185.544a2.577,2.577,0,0,0-1.845-.538H106.8c-.517,0-.713-.025-.713.086s.212.037.354.148a.521.521,0,0,1,.138.188,3.006,3.006,0,0,1,.1.806c0,.283.031.716.031,1.516v3.552a1.348,1.348,0,0,1-.028.323v.037a1.49,1.49,0,0,1-.074.308.575.575,0,0,1-.135.175c-.138.111-.354.055-.354.148s.2.083.716.083h1.1V4.927c0-.1.028-.16.077-.181a1.605,1.605,0,0,1,1.368.332,1.762,1.762,0,0,1,.581,1.418,1.783,1.783,0,0,1-.415,1.181,1.089,1.089,0,0,1-.867.4c-.08,0-.188.018-.181.089s.12.08.415.065a2.38,2.38,0,0,0,.615-.117,2.177,2.177,0,0,0,1.664-2.153,1.479,1.479,0,0,0-.566-1.125m6.611-.547c-.443,0-.615-.018-.615.083s.215.037.354.151a.521.521,0,0,1,.108.123,1.08,1.08,0,0,1,.086.289,4.246,4.246,0,0,1,.049.655V9.256c-.464-.446-4.062-4.016-5.012-4.911a.157.157,0,0,0-.129-.04c-.065,0-.083.08-.089.129v7.26h.833c.517,0,.713.025.713-.086s-.212-.034-.354-.148a.59.59,0,0,1-.083-.092,2.727,2.727,0,0,1-.145-.959V6.75l5.037,4.92a.153.153,0,0,0,.117.022c.068-.022.074-.1.074-.145V4.315Z" transform="translate(-73.461 -2.968)" fill="#0a2a6f"/>
        <path id="Path_2431" data-name="Path 2431" d="M10.385,7.314A5.548,5.548,0,0,0,8.34,4.627C6.385,3.117,3.147,1.976.5,2.754a1.055,1.055,0,0,0-.5.664c-.018.252.418.347.76.28.086-.022.258-.034.218-.169C.849,3.35.616,3.421.5,3.323.542,3.243.668,3.24.76,3.2a7.833,7.833,0,0,1,4.468.6c1.605.7,3.493,1.621,4.17,3.4a1.864,1.864,0,0,1-.507,1.98A5.158,5.158,0,0,1,4.835,9.8c-.031-.818.028-1.568.022-2.439.923,0,2.26.181,2.46.557.037.065-.031.185-.129.234-.194.1-.387.212-.344.283a.757.757,0,0,0,.633.181,1.06,1.06,0,0,0,.538-.6A.75.75,0,0,0,7.824,7.3a5.278,5.278,0,0,0-2.964-.744s-.031-.821-.052-1.11c-.034-.486-.4-.833-.467-.67a6.309,6.309,0,0,0-.308,1.8A6.883,6.883,0,0,0,2.7,6.9a3.173,3.173,0,0,0-1.092.584.615.615,0,0,0-.129.6,5.52,5.52,0,0,0,2.429,2.066c.04.308.037.75.231.846a.614.614,0,0,0,.474.055c.206-.062.215-.452.228-.563A5.571,5.571,0,0,0,9.4,9.943,2.46,2.46,0,0,0,10.385,7.3M3.906,9.55a4.621,4.621,0,0,1-2.1-1.421c-.117-.169-.145-.308.191-.446a6.437,6.437,0,0,1,2-.289c-.028.578-.068,1.461-.083,2.153" transform="translate(0 -1.733)" fill="#0a2a6f"/>
        <path id="Path_2432" data-name="Path 2432" d="M35.97,16.516A13.274,13.274,0,0,1,36,19.489c-.08.163-.332.166-.5.114-.347-.089-.258-.52-.308-.821a14.791,14.791,0,0,1,.194-2.577c.034-.157.086-.215.221-.215s.326.308.354.526" transform="translate(-24.368 -11.073)" fill="#0a2a6f"/>
        <path id="Path_2433" data-name="Path 2433" d="M39.789,18.57c.148.286.978.344,1.316.308.735-.1,1.15-.378,1.2-.615.08-.335-.437-.443-.8-.526-.652-.148-1.23-.055-1.888-.209a.308.308,0,0,1-.268-.292.95.95,0,0,1,.308-.846,4.53,4.53,0,0,1,3.309-.268c.114.062.068.24,0,.335-.145.2-.44.138-.7.163a9.168,9.168,0,0,0-2.18.237c-.111.037-.092.234.129.268.889.135,2.254.046,2.54.68a1.43,1.43,0,0,1-.123,1.248,2.377,2.377,0,0,1-1.959.409,1.583,1.583,0,0,1-1.205-.923.5.5,0,0,1,.188-.517,1.752,1.752,0,0,1,1.368-.138,1.92,1.92,0,0,1,.815.308c.068.138.031.271-.557.341s-.923-.5-1.375-.277a.308.308,0,0,0-.1.308" transform="translate(-27.243 -11.027)" fill="#0a2a6f"/>
        <path id="Path_2434" data-name="Path 2434" d="M52.416,15.325a14.229,14.229,0,0,1,1.316,1.993c.065.1.181.037.181-.065a17.207,17.207,0,0,0-.47-2.494c0-.08-.049-.252.043-.264.209-.031.4.237.526.4a3.686,3.686,0,0,1,.575,2.506c-.037.271-.185.849-.437.956a.776.776,0,0,1-.526,0c-.449-.323-1.036-1.907-1.209-1.891-.046,0-.08.065-.1.2-.04.446-.1,1.642-.1,1.642-.034.277-.24.249-.335.249a.308.308,0,0,1-.326-.2,5.71,5.71,0,0,1,0-1.375,5.244,5.244,0,0,1,.424-1.559.271.271,0,0,1,.424-.1" transform="translate(-35.675 -10.036)" fill="#0a2a6f"/>
        <path id="Path_2435" data-name="Path 2435" d="M62.853,17.89l.261-.615c-.181-.04-.575-.206-.643-.517,0-.049.271-.126.381-.138a13.162,13.162,0,0,1,2.153-.135c.157,0,.587.5.477.677-.08.129-.692.111-.938.1s-.692.034-.692.034l-.231.575a3.74,3.74,0,0,1,1.085.031c.068.04.071.335.04.4-.077.169-.474.117-.71.117s-.661.018-.661.018-.308.615-.234.766,1.248-.215,1.538-.16c.191.034.323.351.2.455a2.575,2.575,0,0,1-1.947.735.837.837,0,0,1-.572-.987c.071-.308.243-.827.243-.827s-.086-.052-.117-.391c0-.132.357-.154.357-.154" transform="translate(-43.172 -11.414)" fill="#0a2a6f"/>
        <path id="Path_2436" data-name="Path 2436" d="M74.066,16.86a.59.59,0,0,0-.584-.169,3.268,3.268,0,0,0-1.255,1.015c-.264.308-.547.778-.738,1.042a.576.576,0,0,1-.083-.36c.1-.778.923-1.371.846-2.057-.018-.135-.341.16-.427.249a2.933,2.933,0,0,0-.941,2.257,1.682,1.682,0,0,0,.209.593,11.161,11.161,0,0,0-.793,2.023,1.985,1.985,0,0,0,0,1.125c.129.283.615.649.664.424a25.077,25.077,0,0,1,.873-3.032,1.231,1.231,0,0,0,.467.046,2.322,2.322,0,0,0,1.916-1.734,1.575,1.575,0,0,0-.141-1.424m-.76,1.919a1.617,1.617,0,0,1-1.055.418,10.5,10.5,0,0,1,.615-.993,3.5,3.5,0,0,1,.824-.824c.089-.046.151.058.145.206a1.575,1.575,0,0,1-.544,1.193" transform="translate(-48.625 -11.285)" fill="#0a2a6f"/>
        <path id="Path_2437" data-name="Path 2437" d="M35.994,6.036a.679.679,0,0,0-.5-.117c-.08-.464-1.03-.418-1.4-.329a2.153,2.153,0,0,0-1.427,1.1.854.854,0,0,0,.157,1.018.663.663,0,0,0-.028.326c.034.191.2.369.335.372s.234-.286.277-.326a2.151,2.151,0,0,0,1.067.068,2.319,2.319,0,0,0,1.587-1.23.787.787,0,0,0-.074-.9m-2.854,1.2a.393.393,0,0,1,0-.394,1.187,1.187,0,0,1,.218-.289,1.609,1.609,0,0,1,.44-.308.614.614,0,0,1,.381-.043,3.659,3.659,0,0,0-1.027,1.024m1.639.271a1.819,1.819,0,0,1-1.055.034,2.66,2.66,0,0,1,1.458-1.2c.24-.04.446-.037.5.145.074.277-.151.741-.9,1.021" transform="translate(-22.559 -3.831)" fill="#0a2a6f"/>
        <rect id="Rectangle_1662" data-name="Rectangle 1662" width="0.077" height="11.79" transform="translate(28.854)" fill="#0a2a6f"/>
      </g>
    </g>
  </g>
</svg>
